<?xml version="1.0" encoding="UTF-8" standalone="no"?>
<!-- Created with Inkscape (http://www.inkscape.org/) -->

<svg
   xmlns:dc="http://purl.org/dc/elements/1.1/"
   xmlns:cc="http://creativecommons.org/ns#"
   xmlns:rdf="http://www.w3.org/1999/02/22-rdf-syntax-ns#"
   xmlns:svg="http://www.w3.org/2000/svg"
   xmlns="http://www.w3.org/2000/svg"
   xmlns:sodipodi="http://sodipodi.sourceforge.net/DTD/sodipodi-0.dtd"
   xmlns:inkscape="http://www.inkscape.org/namespaces/inkscape"
   width="210mm"
   height="297mm"
   viewBox="0 0 210 297"
   version="1.1"
   id="svg8"
   sodipodi:docname="Hopi.svg"
   inkscape:export-filename="C:\Users\david\Downloads\Hopi.png"
   inkscape:export-xdpi="260.10001"
   inkscape:export-ydpi="260.10001"
   inkscape:version="0.92.1 r15371">
  <defs
     id="defs2" />
  <sodipodi:namedview
     id="base"
     pagecolor="#ffffff"
     bordercolor="#666666"
     borderopacity="1.0"
     inkscape:pageopacity="0.0"
     inkscape:pageshadow="2"
     inkscape:zoom="0.35355339"
     inkscape:cx="-57.328798"
     inkscape:cy="571.7289"
     inkscape:document-units="mm"
     inkscape:current-layer="layer4"
     showgrid="false"
     inkscape:lockguides="true"
     inkscape:window-width="1366"
     inkscape:window-height="715"
     inkscape:window-x="-8"
     inkscape:window-y="-8"
     inkscape:window-maximized="1"
     units="in" />
  <metadata
     id="metadata5">
    <rdf:RDF>
      <cc:Work
         rdf:about="">
        <dc:format>image/svg+xml</dc:format>
        <dc:type
           rdf:resource="http://purl.org/dc/dcmitype/StillImage" />
        <dc:title />
      </cc:Work>
    </rdf:RDF>
  </metadata>
  <g
     inkscape:label="Background"
     inkscape:groupmode="layer"
     id="layer1"
     style="display:none"
     sodipodi:insensitive="true">
    <rect
       style="fill:#652032;fill-opacity:1;stroke:none;stroke-width:0.39687499;stroke-miterlimit:4;stroke-dasharray:none;stroke-opacity:1"
       id="rect4568"
       width="209.53931"
       height="297.73828"
       x="0.53453904"
       y="-0.73825359" />
  </g>
  <g
     inkscape:groupmode="layer"
     id="layer4"
     inkscape:label="HOPI/E"
     style="display:inline">
    <g
       aria-label="HOP"
       transform="rotate(90)"
       style="font-style:normal;font-variant:normal;font-weight:normal;font-stretch:normal;font-size:80.08055115px;line-height:6.61458302px;font-family:Bungee;-inkscape-font-specification:Bungee;letter-spacing:0px;word-spacing:0px;display:inline;fill:#ffffff;fill-opacity:1;stroke:none;stroke-width:1.05799997;stroke-linecap:butt;stroke-linejoin:miter;stroke-miterlimit:4;stroke-dasharray:none;stroke-dashoffset:0;stroke-opacity:1"
       id="text4788">
      <path
         d="M 29.928544,-76.174316 H 17.516058 q -1.52153,0 -2.242255,-0.640645 -0.640645,-0.720725 -0.640645,-2.242255 v -51.892194 q 0,-1.52153 0.640645,-2.16218 0.720725,-0.72072 2.242255,-0.72072 h 12.412486 q 1.52153,0 2.162174,0.72072 0.720725,0.64065 0.720725,2.16218 v 17.37748 h 13.373452 v -17.37748 q 0,-1.52153 0.640645,-2.16218 0.720725,-0.72072 2.242255,-0.72072 h 12.412486 q 1.52153,0 2.162175,0.72072 0.720725,0.64065 0.720725,2.16218 v 51.892194 q 0,1.52153 -0.720725,2.242255 -0.640645,0.640645 -2.162175,0.640645 H 49.067795 q -1.52153,0 -2.242255,-0.640645 -0.640645,-0.720725 -0.640645,-2.242255 V -96.835099 H 32.811443 v 17.777883 q 0,1.52153 -0.720725,2.242255 -0.640644,0.640645 -2.162174,0.640645 z"
         style="fill:#ffffff;fill-opacity:1;stroke:none;stroke-width:1.05799997;stroke-miterlimit:4;stroke-dasharray:none;stroke-dashoffset:0;stroke-opacity:1"
         id="path4580" />
      <path
         d="m 124.32474,-91.309541 q 0,3.683706 -1.12112,6.726767 -1.04105,2.96298 -3.84387,5.125155 -2.72274,2.082094 -7.60765,3.283303 -4.80484,1.201208 -12.252327,1.201208 -7.447491,0 -12.332405,-1.201208 -4.884914,-1.201209 -7.687733,-3.283303 -2.722739,-2.162175 -3.843866,-5.125155 -1.041048,-3.043061 -1.041048,-6.726767 v -27.307469 q 0,-3.6837 1.041048,-6.64668 1.121127,-3.04307 3.843866,-5.20524 2.802819,-2.16217 7.687733,-3.36338 4.884914,-1.20121 12.332405,-1.20121 7.447487,0 12.252327,1.20121 4.88491,1.20121 7.60765,3.36338 2.80282,2.16217 3.84387,5.20524 1.12112,2.96298 1.12112,6.64668 z M 92.773006,-94.19244 q 0,1.601611 1.201209,2.722738 1.201208,1.041047 5.525558,1.041047 4.324347,0 5.525557,-1.041047 1.20121,-1.121127 1.20121,-2.722738 v -21.54167 q 0,-1.52153 -1.20121,-2.56258 -1.20121,-1.12112 -5.525557,-1.12112 -4.32435,0 -5.525558,1.12112 -1.201209,1.04105 -1.201209,2.56258 z"
         style="fill:#ffffff;fill-opacity:1;stroke:none;stroke-width:1.05799997;stroke-miterlimit:4;stroke-dasharray:none;stroke-dashoffset:0;stroke-opacity:1"
         id="path4582" />
      <path
         d="m 149.73656,-76.174316 h -12.41249 q -1.52153,0 -2.24225,-0.640645 -0.64065,-0.720725 -0.64065,-2.242255 v -51.892194 q 0,-1.52153 0.64065,-2.16218 0.72072,-0.72072 2.24225,-0.72072 h 24.50465 q 10.89096,0 14.89498,4.32435 4.00403,4.32435 4.00403,11.29135 v 10.25031 q 0,6.96701 -4.00403,11.291363 -4.00402,4.324349 -14.89498,4.324349 h -9.20926 v 13.293372 q 0,1.52153 -0.72073,2.242255 -0.64064,0.640645 -2.16217,0.640645 z m 2.72274,-42.682934 v 12.09216 h 7.20725 q 2.32233,0 3.04306,-1.20121 0.72072,-1.2012 0.72072,-2.72273 v -4.24427 q 0,-1.52153 -0.72072,-2.72274 -0.72073,-1.20121 -3.04306,-1.20121 z"
         style="fill:#ffffff;fill-opacity:1;stroke:none;stroke-width:1.05799997;stroke-miterlimit:4;stroke-dasharray:none;stroke-dashoffset:0;stroke-opacity:1"
         id="path4584" />
    </g>
    <g
       aria-label="E"
       transform="rotate(90)"
       style="font-style:normal;font-variant:normal;font-weight:normal;font-stretch:normal;font-size:80.08055115px;line-height:6.61458302px;font-family:Bungee;-inkscape-font-specification:Bungee;letter-spacing:0px;word-spacing:0px;display:inline;fill:#ffd42a;fill-opacity:1;stroke:none;stroke-width:1.05833328;stroke-linecap:butt;stroke-linejoin:miter;stroke-miterlimit:4;stroke-dasharray:none;stroke-opacity:1"
       id="text4864">
      <path
         d="m 229.03629,-76.174316 h -37.15737 q -1.52153,0 -2.24226,-0.640645 -0.64064,-0.720725 -0.64064,-2.242255 v -51.892194 q 0,-1.52153 0.64064,-2.16218 0.72073,-0.72072 2.24226,-0.72072 h 37.15737 q 1.52153,0 2.16218,0.72072 0.72072,0.64065 0.72072,2.16218 v 9.36942 q 0,1.52153 -0.72072,2.24226 -0.64065,0.64064 -2.16218,0.64064 h -22.10223 v 6.1662 h 15.61571 q 1.52153,0 2.16217,0.72073 0.72073,0.64064 0.72073,2.16217 v 8.56862 q 0,1.521533 -0.72073,2.242258 -0.64064,0.640644 -2.16217,0.640644 h -15.61571 v 6.886927 h 22.10223 q 1.52153,0 2.16218,0.720725 0.72072,0.640645 0.72072,2.162175 v 9.369425 q 0,1.52153 -0.72072,2.242255 -0.64065,0.640645 -2.16218,0.640645 z"
         style="fill:#ffd42a;fill-opacity:1;stroke:none;stroke-width:1.05833328;stroke-miterlimit:4;stroke-dasharray:none;stroke-opacity:1"
         id="path4587" />
    </g>
    <g
       aria-label="|"
       transform="matrix(0,1.1073295,-0.90307356,0,0,0)"
       style="font-style:normal;font-variant:normal;font-weight:normal;font-stretch:normal;font-size:69.89469147px;line-height:5.77324104px;font-family:Bungee;-inkscape-font-specification:Bungee;letter-spacing:0px;word-spacing:0px;display:inline;fill:#ffffff;fill-opacity:1;stroke:none;stroke-width:1.05833328;stroke-linecap:butt;stroke-linejoin:miter;stroke-miterlimit:4;stroke-dasharray:none;stroke-opacity:1"
       id="text4629">
      <path
         d="m 186.2774,-145.10295 v 57.872808 q 0,1.327999 -0.62905,1.887157 -0.55916,0.629052 -1.88716,0.629052 h -10.13473 q -1.328,0 -1.95705,-0.629052 -0.55916,-0.559158 -0.55916,-1.887157 v -57.872808 q 0,-1.328 0.55916,-1.88716 0.62905,-0.62905 1.95705,-0.62905 h 10.13473 q 1.328,0 1.88716,0.62905 0.62905,0.55916 0.62905,1.88716 z"
         style="font-size:69.8946991px;fill:#ffffff;fill-opacity:1;stroke:none;stroke-width:1.05833328;stroke-miterlimit:4;stroke-dasharray:none;stroke-opacity:1"
         id="path4590" />
    </g>
  </g>
  <g
     inkscape:groupmode="layer"
     id="layer2"
     inkscape:label="Team 2017"
     style="display:inline"
     sodipodi:insensitive="true">
    <g
       transform="matrix(0,0.26458333,-0.26458333,0,95.809347,-31.30649)"
       style="font-style:normal;font-variant:normal;font-weight:normal;font-stretch:normal;font-size:48px;line-height:25px;font-family:Bungee;-inkscape-font-specification:Bungee;letter-spacing:0px;word-spacing:0px;fill:#000000;fill-opacity:1;stroke:none;stroke-width:1px;stroke-linecap:butt;stroke-linejoin:miter;stroke-opacity:1"
       id="flowRoot4571" />
    <g
       transform="scale(0.26458333)"
       style="font-style:normal;font-variant:normal;font-weight:normal;font-stretch:normal;font-size:40px;line-height:25px;font-family:Bungee;-inkscape-font-specification:Bungee;letter-spacing:0px;word-spacing:0px;fill:#000000;fill-opacity:1;stroke:none;stroke-width:1px;stroke-linecap:butt;stroke-linejoin:miter;stroke-opacity:1"
       id="flowRoot4585" />
    <g
       transform="scale(0.26458333)"
       style="font-style:normal;font-variant:normal;font-weight:normal;font-stretch:normal;font-size:40px;line-height:25px;font-family:Bungee;-inkscape-font-specification:Bungee;letter-spacing:0px;word-spacing:0px;fill:#000000;fill-opacity:1;stroke:none;stroke-width:1px;stroke-linecap:butt;stroke-linejoin:miter;stroke-opacity:1"
       id="flowRoot4593" />
    <g
       transform="scale(0.26458333)"
       style="font-style:normal;font-variant:normal;font-weight:normal;font-stretch:normal;font-size:40px;line-height:25px;font-family:Bungee;-inkscape-font-specification:Bungee;letter-spacing:0px;word-spacing:0px;fill:#000000;fill-opacity:1;stroke:none;stroke-width:1px;stroke-linecap:butt;stroke-linejoin:miter;stroke-opacity:1"
       id="flowRoot4615" />
    <g
       id="g4878"
       transform="translate(0,4.0574928)"
       style="fill:#ffffff;fill-opacity:1" />
    <g
       style="font-style:normal;font-weight:normal;font-size:10.58333302px;line-height:6.61458302px;font-family:sans-serif;letter-spacing:0px;word-spacing:0px;fill:#000000;fill-opacity:1;stroke:none;stroke-width:0.26458332px;stroke-linecap:butt;stroke-linejoin:miter;stroke-opacity:1"
       id="text4625" />
    <g
       aria-label="2"
       transform="scale(0.999999,1.000001)"
       style="font-style:normal;font-variant:normal;font-weight:normal;font-stretch:normal;font-size:85.81503296px;line-height:7.08825016px;font-family:Bungee;-inkscape-font-specification:Bungee;letter-spacing:0px;word-spacing:0px;fill:#ffffff;fill-opacity:1;stroke:none;stroke-width:0.28353003px;stroke-linecap:butt;stroke-linejoin:miter;stroke-opacity:1"
       id="text4639">
      <path
         d="m 50.11806,115.61529 v 0.12853 h 18.894425 v 7.26215 H 38.164443 v -7.26215 q 12.917618,-10.08988 17.159224,-15.35975 4.305872,-5.334142 4.305872,-10.346949 0,-7.133609 -7.647744,-7.133609 -5.591207,0 -12.85335,3.663205 v -8.354678 q 6.362408,-2.763471 14.138685,-2.763471 7.519211,0 11.568016,3.598938 4.048806,3.598939 4.048806,10.089881 0,6.041075 -3.856006,11.632283 -3.791738,5.59121 -14.909886,14.84562 z"
         style="font-style:normal;font-variant:normal;font-weight:bold;font-stretch:normal;font-size:64.26675415px;font-family:'M+ 1c';-inkscape-font-specification:'M+ 1c Bold';fill:#ffffff;fill-opacity:1;stroke-width:0.28353003px"
         id="path4564"
         inkscape:connector-curvature="0" />
    </g>
    <g
       aria-label="7"
       transform="scale(0.999999,1.000001)"
       style="font-style:normal;font-variant:normal;font-weight:normal;font-stretch:normal;font-size:85.81503296px;line-height:7.08824968px;font-family:Bungee;-inkscape-font-specification:Bungee;letter-spacing:0px;word-spacing:0px;display:inline;fill:#ffffff;fill-opacity:1;stroke:none;stroke-width:0.28353003px;stroke-linecap:butt;stroke-linejoin:miter;stroke-opacity:1"
       id="text4832">
      <path
         d="m 156.38325,75.769939 h 31.94058 v 7.262143 q -10.66828,17.544828 -17.60909,39.652588 h -9.51148 q 7.32641,-21.52936 18.50883,-39.459788 v -0.1928 h -23.32884 z"
         style="font-style:normal;font-variant:normal;font-weight:bold;font-stretch:normal;font-size:64.26675415px;font-family:'M+ 1c';-inkscape-font-specification:'M+ 1c Bold';letter-spacing:-5.67059755px;fill:#ffffff;fill-opacity:1;stroke-width:0.28353003px"
         id="path4567"
         inkscape:connector-curvature="0" />
    </g>
    <path
       style="fill:#ffffff;fill-opacity:1;stroke:none;stroke-width:1.23765934;stroke-linecap:butt;stroke-miterlimit:4;stroke-dasharray:none;stroke-dashoffset:0;stroke-opacity:1;paint-order:normal"
       d="m 141.91833,75.769913 h 8.16265 V 122.685 h -8.16265 z"
       id="rect5562"
       inkscape:connector-curvature="0" />
    <g
       aria-label="TEAM"
       transform="scale(0.999999,1.000001)"
       style="font-style:normal;font-weight:normal;font-size:12.21269798px;line-height:7.63293409px;font-family:sans-serif;letter-spacing:0px;word-spacing:0px;fill:#ffffff;fill-opacity:1;stroke:none;stroke-width:0.3053174px;stroke-linecap:butt;stroke-linejoin:miter;stroke-opacity:1"
       id="text4676">
      <path
         d="M 34.058636,84.853048 H 31.14822 v -3.316111 h -9.965973 v -3.598334 h 9.965973 v -3.316111 h 2.910416 z"
         style="font-style:normal;font-variant:normal;font-weight:900;font-stretch:normal;font-size:17.63888931px;font-family:'M+ 1c';-inkscape-font-specification:'M+ 1c Heavy';writing-mode:tb-rl;fill:#ffffff;fill-opacity:1;stroke:none;stroke-width:0.3053174px;stroke-opacity:1"
         id="path4571"
         inkscape:connector-curvature="0" />
      <path
         d="M 29.119747,95.101243 H 26.473914 V 90.515131 H 24.004469 V 95.45402 H 21.182247 V 86.987354 H 34.058636 V 95.45402 H 31.236414 V 90.515131 H 29.119747 Z"
         style="font-style:normal;font-variant:normal;font-weight:900;font-stretch:normal;font-size:17.63888931px;font-family:'M+ 1c';-inkscape-font-specification:'M+ 1c Heavy';writing-mode:tb-rl;fill:#ffffff;fill-opacity:1;stroke:none;stroke-width:0.3053174px;stroke-opacity:1"
         id="path4573"
         inkscape:connector-curvature="0" />
      <path
         d="m 26.297525,101.68055 v 2.15194 l 4.7625,-1.05833 v -0.0353 z m -2.645833,-0.58209 -2.469445,-0.5468 v -3.668891 l 12.876389,4.056941 v 3.70417 l -12.876389,4.05695 v -3.73945 l 2.469445,-0.5468 z"
         style="font-style:normal;font-variant:normal;font-weight:900;font-stretch:normal;font-size:17.63888931px;font-family:'M+ 1c';-inkscape-font-specification:'M+ 1c Heavy';writing-mode:tb-rl;fill:#ffffff;fill-opacity:1;stroke:none;stroke-width:0.3053174px;stroke-opacity:1"
         id="path4575"
         inkscape:connector-curvature="0" />
      <path
         d="m 28.237803,119.70749 v -0.0353 l -4.409722,-1.64041 v -2.82222 l 4.409722,-1.64042 v -0.0353 h -7.055556 v -3.22792 h 12.876389 v 3.5807 l -7.584722,2.71639 v 0.0353 l 7.584722,2.71638 v 3.65126 H 21.182247 v -3.29848 z"
         style="font-style:normal;font-variant:normal;font-weight:900;font-stretch:normal;font-size:17.63888931px;font-family:'M+ 1c';-inkscape-font-specification:'M+ 1c Heavy';writing-mode:tb-rl;fill:#ffffff;fill-opacity:1;stroke:none;stroke-width:0.3053174px;stroke-opacity:1"
         id="path4577"
         inkscape:connector-curvature="0" />
    </g>
  </g>
  <g
     inkscape:groupmode="layer"
     id="layer3"
     inkscape:label="Love/Power/Faith"
     style="display:inline"
     sodipodi:insensitive="true">
    <g
       aria-label="Love"
       transform="matrix(0,1.0666361,-0.93752687,0,0,0)"
       style="font-style:normal;font-variant:normal;font-weight:normal;font-stretch:normal;font-size:22.57712936px;line-height:7.05535316px;font-family:'M+ 1c';-inkscape-font-specification:'M+ 1c';letter-spacing:0px;word-spacing:0px;display:inline;fill:#ffd42a;fill-opacity:1;stroke:none;stroke-width:0.28221413px;stroke-linecap:butt;stroke-linejoin:miter;stroke-opacity:1"
       id="text4955">
      <path
         d="m 226.07941,-141.22454 v 12.45505 h 6.66025 v 1.27937 h -8.22184 v -13.73442 z"
         style="font-style:normal;font-variant:normal;font-weight:normal;font-stretch:normal;font-size:18.81427574px;font-family:'M+ 1c';-inkscape-font-specification:'M+ 1c';letter-spacing:0.39687499px;fill:#ffd42a;stroke-width:0.28221413px"
         id="path4528"
         inkscape:connector-curvature="0" />
      <path
         d="m 235.79964,-136.12587 q 1.1853,-1.33582 3.2925,-1.33582 2.1072,0 3.2925,1.33582 1.20411,1.33581 1.20411,3.74404 0,2.40823 -1.20411,3.74404 -1.1853,1.33581 -3.2925,1.33581 -2.1072,0 -3.2925,-1.33581 -1.1853,-1.33581 -1.1853,-3.74404 0,-2.40823 1.1853,-3.74404 z m 0.28221,3.74404 q 0,3.951 3.01029,3.951 3.01028,0 3.01028,-3.951 0,-3.951 -3.01028,-3.951 -3.01029,0 -3.01029,3.951 z"
         style="font-style:normal;font-variant:normal;font-weight:normal;font-stretch:normal;font-size:18.81427574px;font-family:'M+ 1c';-inkscape-font-specification:'M+ 1c';letter-spacing:0.39687499px;fill:#ffd42a;stroke-width:0.28221413px"
         id="path4530"
         inkscape:connector-curvature="0" />
      <path
         d="m 246.65754,-137.27354 2.93503,8.93678 h 0.0376 l 2.91621,-8.93678 h 1.52396 l -3.51827,9.78342 h -1.93787 l -3.51827,-9.78342 z"
         style="font-style:normal;font-variant:normal;font-weight:normal;font-stretch:normal;font-size:18.81427574px;font-family:'M+ 1c';-inkscape-font-specification:'M+ 1c';letter-spacing:0.39687499px;fill:#ffd42a;stroke-width:0.28221413px"
         id="path4532"
         inkscape:connector-curvature="0" />
      <path
         d="m 257.03069,-132.00555 q 0.11288,3.61234 3.40538,3.61234 1.29819,0 2.80333,-0.62087 v 1.24175 q -1.54277,0.47035 -2.91621,0.47035 -2.31416,0 -3.53709,-1.27937 -1.20411,-1.27937 -1.20411,-3.80048 0,-2.61519 1.14767,-3.83811 1.16649,-1.24175 3.17961,-1.24175 3.951,0 3.951,4.94816 0,0.16933 -0.0376,0.50798 z m 0.0188,-1.11004 h 5.3997 q -0.0564,-3.25487 -2.53993,-3.25487 -2.67162,0 -2.85977,3.25487 z"
         style="font-style:normal;font-variant:normal;font-weight:normal;font-stretch:normal;font-size:18.81427574px;font-family:'M+ 1c';-inkscape-font-specification:'M+ 1c';letter-spacing:0.39687499px;fill:#ffd42a;stroke-width:0.28221413px"
         id="path4534"
         inkscape:connector-curvature="0" />
    </g>
    <g
       aria-label="Power"
       transform="rotate(90)"
       style="font-style:normal;font-variant:normal;font-weight:normal;font-stretch:normal;font-size:21.16666603px;line-height:6.61458302px;font-family:'M+ 1c';-inkscape-font-specification:'M+ 1c';letter-spacing:0px;word-spacing:0px;display:inline;fill:#ffd42a;fill-opacity:1;stroke:none;stroke-width:0.26458332px;stroke-linecap:butt;stroke-linejoin:miter;stroke-opacity:1"
       id="text4959">
      <path
         d="m 232.92362,-111.38584 q 1.83445,-0.28222 3.5807,-0.28222 2.39889,0 3.63361,1.02306 1.25236,1.00541 1.25236,2.89278 0,2.04611 -1.25236,3.10444 -1.25236,1.05833 -3.63361,1.05833 -1.16417,0 -2.16959,-0.10583 v 5.08 h -1.41111 z m 1.41111,6.52639 q 1.02306,0.14111 2.06375,0.14111 1.74625,0 2.66348,-0.75847 0.93486,-0.75847 0.93486,-2.16958 0,-1.41111 -0.91723,-2.13431 -0.89958,-0.74083 -2.68111,-0.74083 -0.97014,0 -2.06375,0.17639 z"
         style="font-style:normal;font-variant:normal;font-weight:normal;font-stretch:normal;font-size:17.63888931px;font-family:'M+ 1c';-inkscape-font-specification:'M+ 1c';fill:#ffd42a;stroke-width:0.26458332px"
         id="path4537"
         inkscape:connector-curvature="0" />
      <path
         d="m 243.47306,-106.71153 q 1.11125,-1.25236 3.0868,-1.25236 1.97556,0 3.08681,1.25236 1.12889,1.25236 1.12889,3.51014 0,2.25778 -1.12889,3.510138 -1.11125,1.252361 -3.08681,1.252361 -1.97555,0 -3.0868,-1.252361 -1.11125,-1.252358 -1.11125,-3.510138 0,-2.25778 1.11125,-3.51014 z m 0.26458,3.51014 q 0,3.704165 2.82222,3.704165 2.82222,0 2.82222,-3.704165 0,-3.70417 -2.82222,-3.70417 -2.82222,0 -2.82222,3.70417 z"
         style="font-style:normal;font-variant:normal;font-weight:normal;font-stretch:normal;font-size:17.63888931px;font-family:'M+ 1c';-inkscape-font-specification:'M+ 1c';fill:#ffd42a;stroke-width:0.26458332px"
         id="path4539"
         inkscape:connector-curvature="0" />
      <path
         d="m 253.56029,-107.7875 1.92264,8.008053 h 0.0353 l 1.86972,-8.008053 h 1.81681 l 1.86972,8.008053 h 0.0353 l 1.92264,-8.008053 h 1.41111 l -2.52236,9.17222 h -1.76389 l -1.86972,-7.88458 h -0.0353 l -1.86972,7.88458 h -1.76389 l -2.52236,-9.17222 z"
         style="font-style:normal;font-variant:normal;font-weight:normal;font-stretch:normal;font-size:17.63888931px;font-family:'M+ 1c';-inkscape-font-specification:'M+ 1c';fill:#ffd42a;stroke-width:0.26458332px"
         id="path4541"
         inkscape:connector-curvature="0" />
      <path
         d="m 267.1122,-102.84861 q 0.10583,3.386663 3.19264,3.386663 1.21708,0 2.62819,-0.582083 v 1.164167 q -1.44638,0.440972 -2.73402,0.440972 -2.16959,0 -3.31612,-1.199445 -1.12888,-1.199444 -1.12888,-3.563054 0,-2.45181 1.07597,-3.59833 1.09361,-1.16417 2.98097,-1.16417 3.70417,0 3.70417,4.63903 0,0.15875 -0.0353,0.47625 z m 0.0176,-1.0407 h 5.06236 q -0.0529,-3.05153 -2.38125,-3.05153 -2.50472,0 -2.68111,3.05153 z"
         style="font-style:normal;font-variant:normal;font-weight:normal;font-stretch:normal;font-size:17.63888931px;font-family:'M+ 1c';-inkscape-font-specification:'M+ 1c';fill:#ffd42a;stroke-width:0.26458332px"
         id="path4543"
         inkscape:connector-curvature="0" />
      <path
         d="m 275.63867,-107.7875 h 1.3582 v 2.04611 h 0.0353 q 0.5468,-0.93486 1.5875,-1.48167 1.04069,-0.56444 2.31069,-0.56444 h 0.35278 v 1.1818 h -0.35278 q -1.83444,0 -2.8575,0.9525 -1.02305,0.9525 -1.02305,2.69875 v 4.33917 h -1.41112 z"
         style="font-style:normal;font-variant:normal;font-weight:normal;font-stretch:normal;font-size:17.63888931px;font-family:'M+ 1c';-inkscape-font-specification:'M+ 1c';fill:#ffd42a;stroke-width:0.26458332px"
         id="path4545"
         inkscape:connector-curvature="0" />
    </g>
    <g
       aria-label="Faith"
       transform="matrix(0,0.99439092,-1.0056407,0,0,0)"
       style="font-style:normal;font-variant:normal;font-weight:normal;font-stretch:normal;font-size:21.04794121px;line-height:6.57748127px;font-family:'M+ 1c';-inkscape-font-specification:'M+ 1c';letter-spacing:0px;word-spacing:0px;display:inline;fill:#ffd42a;fill-opacity:1;stroke:none;stroke-width:0.26309925px;stroke-linecap:butt;stroke-linejoin:miter;stroke-opacity:1"
       id="text4963">
      <path
         d="m 248.11232,-88.382757 h -5.91096 v 4.349908 h 5.56016 v 1.122557 h -5.56016 v 6.156523 h -1.4032 v -12.804164 h 7.31416 z"
         style="font-style:normal;font-variant:normal;font-weight:normal;font-stretch:normal;font-size:17.53995132px;font-family:'M+ 1c';-inkscape-font-specification:'M+ 1c';letter-spacing:0.26458335px;fill:#ffd42a;stroke-width:0.26309925px"
         id="path4548"
         inkscape:connector-curvature="0" />
      <path
         d="m 255.8492,-82.541953 v -0.473579 q 0,-1.069937 -0.49112,-1.490895 -0.49112,-0.438499 -1.73646,-0.438499 -1.49089,0 -3.19227,0.666518 v -1.210257 q 1.5786,-0.561278 3.19227,-0.561278 2.0171,0 2.78886,0.736678 0.77175,0.736678 0.77175,2.648532 v 5.910964 h -1.26287 l -0.0175,-1.561056 h -0.0351 q -1.0524,1.736456 -3.24489,1.736456 -1.19272,0 -1.94694,-0.754218 -0.73668,-0.754218 -0.73668,-1.999555 0,-1.455816 1.15764,-2.332813 1.15764,-0.876998 3.70093,-0.876998 z m 0,0.964697 h -1.0524 q -1.73645,0 -2.63099,0.561279 -0.877,0.561278 -0.877,1.578596 0,0.789297 0.4385,1.280416 0.45604,0.473579 1.19272,0.473579 1.26287,0 2.08725,-0.841918 0.84192,-0.841918 0.84192,-2.227574 z"
         style="font-style:normal;font-variant:normal;font-weight:normal;font-stretch:normal;font-size:17.53995132px;font-family:'M+ 1c';-inkscape-font-specification:'M+ 1c';letter-spacing:0.26458335px;fill:#ffd42a;stroke-width:0.26309925px"
         id="path4550"
         inkscape:connector-curvature="0" />
      <path
         d="m 260.69527,-76.753769 v -9.120775 h 1.4032 v 9.120775 z m 0,-11.278189 v -1.876774 h 1.4032 v 1.876774 z"
         style="font-style:normal;font-variant:normal;font-weight:normal;font-stretch:normal;font-size:17.53995132px;font-family:'M+ 1c';-inkscape-font-specification:'M+ 1c';letter-spacing:0.26458335px;fill:#ffd42a;stroke-width:0.26309925px"
         id="path4552"
         inkscape:connector-curvature="0" />
      <path
         d="m 268.56425,-88.856335 v 3.33259 h 3.31505 v 1.052397 h -3.31505 v 4.788407 q 0,1.262877 0.33326,1.666296 0.33325,0.385879 1.28041,0.385879 0.7893,0 1.45582,-0.24556 v 1.087477 q -0.82438,0.21048 -1.68384,0.21048 -1.54351,0 -2.13987,-0.631439 -0.57882,-0.648978 -0.57882,-2.350353 v -4.911187 h -1.96447 v -1.052397 h 1.96447 v -3.33259 z"
         style="font-style:normal;font-variant:normal;font-weight:normal;font-stretch:normal;font-size:17.53995132px;font-family:'M+ 1c';-inkscape-font-specification:'M+ 1c';letter-spacing:0.26458335px;fill:#ffd42a;stroke-width:0.26309925px"
         id="path4554"
         inkscape:connector-curvature="0" />
      <path
         d="m 276.21233,-89.908732 v 5.419845 h 0.0351 q 1.24533,-1.561056 2.94671,-1.561056 1.59613,0 2.31527,0.894537 0.71914,0.876998 0.71914,2.964252 v 5.437385 h -1.3155 v -5.209365 q 0,-1.771536 -0.47358,-2.367894 -0.45603,-0.613898 -1.59613,-0.613898 -0.91208,0 -1.77154,0.876997 -0.85945,0.859458 -0.85945,1.771535 v 5.542625 h -1.35058 v -13.154963 z"
         style="font-style:normal;font-variant:normal;font-weight:normal;font-stretch:normal;font-size:17.53995132px;font-family:'M+ 1c';-inkscape-font-specification:'M+ 1c';letter-spacing:0.26458335px;fill:#ffd42a;stroke-width:0.26309925px"
         id="path4556"
         inkscape:connector-curvature="0" />
    </g>
  </g>
</svg>
